<?xml version="1.0" encoding="UTF-8"?><svg id="Ebene_2" xmlns="http://www.w3.org/2000/svg" viewBox="0 0 507.06 115.97"><defs><style>.cls-1{fill:#00b1bf;}.cls-2{fill:#ffffff;}</style></defs><g id="Ebene_1-2"><g><path class="cls-2" d="m75.37,38.23c0,7.42-.75,13.67-2.23,18.5-1.48,4.85-3.7,8.46-6.65,10.81-2.94,2.36-5.94,3.92-8.98,4.7-3.04.78-6.66,1.17-10.84,1.17s-7.93-.39-10.92-1.17c-2.99-.78-5.97-2.34-8.91-4.7-2.94-2.35-5.16-5.96-6.65-10.81-1.48-4.83-2.22-11.09-2.22-18.51H0c0,8.74,1.07,16.38,3.21,22.91,2.14,6.53,5.11,11.65,8.91,15.37,3.8,3.72,7.81,6.52,12.05,8.42,4.24,1.89,8.93,3.18,14.1,3.86,0,18.14,10.66,27.2,31.99,27.2v-14.02c-4.67,0-8.71-1.03-12.09-3.09-3.38-2.07-5.07-5.38-5.07-9.94,4.19-.39,8.09-1.15,11.72-2.29,3.63-1.14,7.24-2.95,10.85-5.42,3.6-2.48,6.67-5.56,9.2-9.25,2.53-3.69,4.57-8.38,6.13-14.09,1.56-5.7,2.34-12.25,2.34-19.62h-17.97Z"/><g><path class="cls-2" d="m109.67,88.65c0-2.83.33-5.32.99-7.45s1.51-3.84,2.54-5.12c1.04-1.27,2.29-2.31,3.76-3.11s2.9-1.33,4.3-1.6c1.4-.27,2.91-.4,4.53-.4s3.13.13,4.53.4c1.4.27,2.83.8,4.3,1.6,1.47.8,2.73,1.84,3.78,3.11,1.05,1.27,1.91,2.98,2.57,5.12.66,2.14.99,4.62.99,7.45s-.33,5.29-.99,7.45c-.66,2.16-1.51,3.87-2.57,5.13-1.05,1.26-2.32,2.29-3.78,3.09-1.47.8-2.9,1.34-4.3,1.61-1.4.27-2.91.4-4.53.4s-3.13-.13-4.53-.4c-1.4-.27-2.83-.81-4.3-1.61-1.47-.8-2.72-1.83-3.76-3.09-1.04-1.26-1.89-2.97-2.54-5.13s-.99-4.65-.99-7.45Zm6.23-.05c0,2.59.26,4.74.77,6.44.51,1.7,1.27,2.95,2.28,3.75,1,.8,2.03,1.34,3.09,1.63,1.05.29,2.31.43,3.76.43,1.18,0,2.2-.08,3.06-.23.86-.15,1.75-.48,2.66-.97.91-.5,1.65-1.19,2.23-2.07.57-.88,1.05-2.08,1.43-3.6.38-1.52.57-3.31.57-5.38,0-2.56-.26-4.69-.77-6.39-.51-1.7-1.28-2.95-2.3-3.75-1.02-.8-2.05-1.33-3.09-1.6-1.04-.27-2.3-.4-3.78-.4-1.15,0-2.15.08-3.01.23-.86.15-1.75.48-2.67.98-.92.51-1.66,1.19-2.23,2.05-.57.86-1.04,2.04-1.42,3.54-.38,1.5-.57,3.28-.57,5.35Z"/><path class="cls-2" d="m148.28,115.52v-27.1c0-2.38.89-4.42,2.67-6.14,1.78-1.71,4.52-2.57,8.21-2.57.86,0,1.71.07,2.56.2.85.13,1.85.49,3,1.06s2.14,1.32,2.96,2.23c.82.91,1.54,2.25,2.14,4.01.6,1.76.91,3.8.91,6.11,0,4.23-1.03,7.49-3.1,9.76-2.07,2.27-5.02,3.4-8.87,3.4-1.45,0-2.87-.15-4.25-.46v9.49h-6.23Zm6.23-14.2c1.43.2,2.71.3,3.82.3,2.01,0,3.54-.59,4.59-1.76,1.05-1.17,1.58-3.24,1.58-6.21s-.4-5.23-1.19-6.58c-.79-1.35-2.18-2.02-4.15-2.02-3.1,0-4.66.93-4.66,2.78v13.49Z"/><path class="cls-2" d="m176.68,93.28c0-4.15.92-7.47,2.77-9.95,1.85-2.48,4.78-3.72,8.79-3.72,3.8,0,6.67,1.21,8.62,3.62,1.95,2.41,2.92,5.38,2.92,8.91,0,1.45-.03,2.52-.1,3.21h-16.78c.17,2.24.84,3.75,2.01,4.5,1.17.76,2.7,1.14,4.57,1.14,3.04,0,5.97-.67,8.81-2v5.01c-2.87,1.55-6.12,2.33-9.74,2.33-1.15,0-2.23-.09-3.24-.28s-2.06-.57-3.15-1.16c-1.08-.59-2.02-1.34-2.8-2.25s-1.42-2.17-1.93-3.78c-.5-1.61-.75-3.47-.75-5.58Zm6.23-2.23h10.43c-.17-1.77-.7-3.27-1.58-4.49s-2.1-1.83-3.66-1.83-2.76.5-3.63,1.49c-.87,1-1.39,2.61-1.56,4.83Z"/><path class="cls-2" d="m205.98,105.93v-23.43c3.8-1.89,7.75-2.83,11.87-2.83,3.61,0,6.43.94,8.46,2.82,2.03,1.88,3.05,4.52,3.05,7.91v15.54h-6.23v-16.07c0-.69-.06-1.27-.19-1.73s-.38-.95-.76-1.46-1-.89-1.86-1.14-1.97-.38-3.32-.38c-1.52,0-3.12.15-4.81.46v20.32h-6.23Z"/><path class="cls-2" d="m237.11,81.08c0-3.35,1.17-5.87,3.52-7.57s5.28-2.55,8.81-2.55c3.1,0,6.2.8,9.29,2.41v6.09c-2.67-1.75-5.52-2.63-8.55-2.63-1.91,0-3.52.33-4.85.99s-1.99,1.7-1.99,3.11c0,1.15.6,2.05,1.81,2.7,1.21.65,2.67,1.2,4.38,1.64,1.71.45,3.43,1.01,5.16,1.68s3.2,1.84,4.4,3.5c1.21,1.66,1.81,3.81,1.81,6.44,0,2.78-1.16,5.05-3.47,6.8-2.31,1.76-5.13,2.64-8.45,2.64-4.39,0-8.19-.97-11.41-2.9v-6.29c2.97,2.21,6.29,3.32,9.97,3.32,4.76,0,7.14-1.32,7.14-3.97,0-1.2-.43-2.19-1.29-2.99-.86-.79-1.95-1.38-3.26-1.76-1.32-.38-2.72-.83-4.23-1.34s-2.91-1.08-4.23-1.68-2.4-1.56-3.26-2.85c-.86-1.29-1.29-2.89-1.29-4.8Z"/><path class="cls-2" d="m267.6,94.21v-14.15h6.23v14.94c0,2.07.42,3.56,1.27,4.47.84.91,2.22,1.36,4.13,1.36s3.34-.45,4.18-1.36c.85-.91,1.27-2.4,1.27-4.47v-14.94h6.23v14.15c0,3.8-1.03,6.76-3.09,8.91-2.06,2.14-4.92,3.21-8.59,3.21s-6.52-1.07-8.57-3.21-3.06-5.11-3.06-8.91Z"/><path class="cls-2" d="m297.69,115.52v-27.1c0-2.38.89-4.42,2.67-6.14,1.78-1.71,4.52-2.57,8.21-2.57.86,0,1.71.07,2.56.2.85.13,1.85.49,3,1.06s2.14,1.32,2.96,2.23c.82.91,1.54,2.25,2.14,4.01.6,1.76.91,3.8.91,6.11,0,4.23-1.03,7.49-3.1,9.76-2.07,2.27-5.02,3.4-8.87,3.4-1.45,0-2.87-.15-4.25-.46v9.49h-6.23Zm6.23-14.2c1.43.2,2.71.3,3.82.3,2.01,0,3.54-.59,4.59-1.76,1.05-1.17,1.58-3.24,1.58-6.21s-.4-5.23-1.19-6.58c-.79-1.35-2.18-2.02-4.15-2.02-3.1,0-4.66.93-4.66,2.78v13.49Z"/><path class="cls-2" d="m326.08,93.28c0-4.15.92-7.47,2.77-9.95,1.85-2.48,4.78-3.72,8.79-3.72,3.8,0,6.67,1.21,8.62,3.62,1.95,2.41,2.92,5.38,2.92,8.91,0,1.45-.03,2.52-.1,3.21h-16.78c.17,2.24.84,3.75,2.01,4.5,1.17.76,2.7,1.14,4.57,1.14,3.04,0,5.97-.67,8.81-2v5.01c-2.87,1.55-6.12,2.33-9.74,2.33-1.15,0-2.23-.09-3.24-.28s-2.06-.57-3.15-1.16c-1.08-.59-2.02-1.34-2.8-2.25-.78-.91-1.42-2.17-1.93-3.78-.5-1.61-.75-3.47-.75-5.58Zm6.23-2.23h10.43c-.17-1.77-.7-3.27-1.58-4.49s-2.1-1.83-3.66-1.83-2.76.5-3.63,1.49c-.87,1-1.39,2.61-1.56,4.83Z"/><path class="cls-2" d="m355.23,105.93v-23.56c.42-.2,1-.44,1.75-.71.74-.28,2.24-.67,4.48-1.18s4.47-.78,6.68-.82v5.34c-2.6.03-4.82.32-6.68.86v20.07h-6.23Z"/><path class="cls-2" d="m372.95,88.63c0-2.83.33-5.31.99-7.45.66-2.14,1.51-3.84,2.54-5.11,1.04-1.27,2.29-2.3,3.76-3.1,1.47-.8,2.91-1.33,4.33-1.6,1.42-.27,2.94-.4,4.55-.4s3.13.13,4.53.4c1.4.27,2.83.8,4.3,1.6,1.47.8,2.73,1.84,3.78,3.11,1.05,1.27,1.91,2.98,2.57,5.11.66,2.14.99,4.62.99,7.45,0,2.56-.27,4.82-.81,6.8-.54,1.98-1.25,3.6-2.13,4.88-.88,1.28-1.94,2.35-3.19,3.2-1.25.86-2.5,1.48-3.76,1.88s-2.61.66-4.06.8c0,1.58.59,2.73,1.76,3.44s2.57,1.07,4.19,1.07v4.86c-7.39,0-11.08-3.14-11.08-9.43-1.79-.24-3.42-.68-4.88-1.34-1.47-.66-2.86-1.63-4.18-2.92-1.32-1.29-2.34-3.06-3.09-5.33-.74-2.26-1.11-4.91-1.11-7.94Zm7-6.4c-.51,1.68-.77,3.82-.77,6.41s.26,4.73.77,6.41c.51,1.68,1.28,2.93,2.3,3.75,1.02.82,2.05,1.36,3.09,1.63s2.3.4,3.78.4,2.7-.13,3.76-.4,2.09-.81,3.11-1.63c1.02-.82,1.79-2.06,2.3-3.75.51-1.68.77-3.82.77-6.41s-.26-4.73-.77-6.41c-.51-1.68-1.28-2.93-2.3-3.75-1.02-.82-2.06-1.36-3.11-1.63-1.05-.27-2.31-.4-3.76-.4s-2.75.13-3.78.4c-1.04.27-2.07.81-3.09,1.63-1.02.82-1.79,2.07-2.3,3.75Z"/><path class="cls-1" d="m412.67,105.93v-34.57h12.93c4.09,0,7.25,1,9.48,3.01,2.23,2.01,3.35,4.87,3.35,8.58s-1.12,6.57-3.35,8.56c-2.23,2-5.4,3-9.49,3h-6.7v11.41h-6.23Zm6.23-17.01h6.23c2.73,0,4.6-.5,5.59-1.51s1.49-2.49,1.49-4.46-.5-3.42-1.51-4.41-2.86-1.49-5.58-1.49h-6.23v11.87Z"/><path class="cls-1" d="m444.94,105.93v-35.71h6.23v35.71h-6.23Z"/><path class="cls-1" d="m459.34,94.21v-14.15h6.23v14.94c0,2.07.42,3.56,1.27,4.47.84.91,2.22,1.36,4.13,1.36s3.34-.45,4.18-1.36c.85-.91,1.27-2.4,1.27-4.47v-14.94h6.23v14.15c0,3.8-1.03,6.76-3.09,8.91-2.06,2.14-4.92,3.21-8.59,3.21s-6.52-1.07-8.57-3.21-3.06-5.11-3.06-8.91Z"/><path class="cls-1" d="m488.49,87.74c0-2.6.92-4.6,2.75-5.99,1.83-1.39,4.11-2.09,6.85-2.09,2.56,0,4.92.62,7.06,1.85v4.74c-1.75-.83-3.75-1.24-5.97-1.24-2.97,0-4.45.73-4.45,2.18,0,.73.42,1.3,1.27,1.71s1.87.78,3.09,1.09,2.43.74,3.63,1.27c1.21.53,2.24,1.43,3.09,2.7s1.28,2.89,1.28,4.85c0,2.16-.88,3.96-2.64,5.38-1.76,1.43-4.1,2.14-7,2.14s-5.7-.7-8.2-2.11v-5.52c2.28,1.52,4.72,2.28,7.31,2.28,1.79,0,2.95-.21,3.49-.62.54-.41.81-1.04.81-1.87,0-.76-.43-1.37-1.28-1.84-.85-.46-1.88-.87-3.09-1.22-1.21-.35-2.41-.76-3.62-1.23-1.21-.47-2.24-1.26-3.09-2.35s-1.28-2.47-1.28-4.13Z"/></g><path class="cls-1" d="m46.67,0c-9.48,0-17.17,7.69-17.17,17.17s7.69,17.17,17.17,17.17,17.17-7.69,17.17-17.17S56.15,0,46.67,0Zm10.53,20.02h-7.91v7.53h-5.27v-7.53h-7.88v-5.56h7.88v-7.68h5.27v7.68h7.91v5.56Z"/></g></g></svg>